#Comment line ignore any data following # character 
#Hierarchical Translation and Rotation (.htr) file 
[Header]	
#Header keywords are followed by a single value 
FileType HTR		#Single word string
DataType HTRS		#Translation followed by rotation and scale data
FileVersion 1		#integer
NumSegments 25		#integer
NumFrames 4		#integer
DataFrameRate 30		#integer, data frame rate in this file
EulerRotationOrder ZYX
CalibrationUnits mm
RotationUnits Degrees
GlobalAxisofGravity Y
BoneLengthAxis Y
ScaleFactor 1.00
[SegmentNames&Hierarchy]
#CHILD	PARENT
BN_Tick_Root GLOBAL
BN_Torso BN_Tick_Root
BN_L_Leg_Front01 BN_Torso
BN_L_Leg_Rear01 BN_Torso
BN_MetalTop BN_Torso
BN_Neck BN_Torso
BN_R_Leg_Front01 BN_Torso
BN_R_Leg_Rear01 BN_Torso
BN_Sack BN_Torso
BN_L_Leg_Front02 BN_L_Leg_Front01
BN_L_Leg_Front03 BN_L_Leg_Front02
BN_L_Leg_Rear02 BN_L_Leg_Rear01
BN_L_Leg_Rear03 BN_L_Leg_Rear02
BN_Head BN_Neck
BN_Needle BN_Head
BN_R_Leg_Front02 BN_R_Leg_Front01
BN_R_Leg_Front03 BN_R_Leg_Front02
BN_R_Leg_Rear02 BN_R_Leg_Rear01
BN_R_Leg_Rear03 BN_R_Leg_Rear02
BN_SackDef01 BN_Sack
BN_SackDef02 BN_Sack
BN_SackDef03 BN_Sack
BN_SackDef04 BN_Sack
BN_SackDef05 BN_Sack
BN_SackDef06 BN_Sack
[BasePosition]
#SegmentName Tx, Ty, Tz, Rx, Ry, Rz, BoneLength
BN_Tick_Root 0.000000 0.000000 0.000000 -90.000000 0.000000 0.000000 10.000000 
BN_Torso 0.000000 0.000000 0.000000 0.000000 0.000000 0.000000 10.000000 
BN_L_Leg_Front01 0.000000 0.000000 0.000000 0.000000 0.000000 0.000000 10.000000 
BN_L_Leg_Rear01 0.000000 0.000000 0.000000 0.000000 0.000000 0.000000 10.000000 
BN_MetalTop 0.000000 0.000000 0.000000 0.000000 0.000000 0.000000 10.000000 
BN_Neck 0.000000 0.000000 0.000000 0.000000 0.000000 0.000000 10.000000 
BN_R_Leg_Front01 0.000000 0.000000 0.000000 0.000000 0.000000 0.000000 10.000000 
BN_R_Leg_Rear01 0.000000 0.000000 0.000000 0.000000 0.000000 0.000000 10.000000 
BN_Sack 0.000000 0.000000 0.000000 0.000000 0.000000 0.000000 10.000000 
BN_L_Leg_Front02 0.000000 0.000000 0.000000 0.000000 0.000000 0.000000 10.000000 
BN_L_Leg_Front03 0.000000 0.000000 0.000000 0.000000 0.000000 0.000000 10.000000 
BN_L_Leg_Rear02 0.000000 0.000000 0.000000 0.000000 0.000000 0.000000 10.000000 
BN_L_Leg_Rear03 0.000000 0.000000 0.000000 0.000000 0.000000 0.000000 10.000000 
BN_Head 0.000000 0.000000 0.000000 0.000000 0.000000 0.000000 10.000000 
BN_Needle 0.000000 0.000000 0.000000 0.000000 0.000000 0.000000 10.000000 
BN_R_Leg_Front02 0.000000 0.000000 0.000000 0.000000 0.000000 0.000000 10.000000 
BN_R_Leg_Front03 0.000000 0.000000 0.000000 0.000000 0.000000 0.000000 10.000000 
BN_R_Leg_Rear02 0.000000 0.000000 0.000000 0.000000 0.000000 0.000000 10.000000 
BN_R_Leg_Rear03 0.000000 0.000000 0.000000 0.000000 0.000000 0.000000 10.000000 
BN_SackDef01 0.000000 0.000000 0.000000 0.000000 0.000000 0.000000 10.000000 
BN_SackDef02 0.000000 0.000000 0.000000 0.000000 0.000000 0.000000 10.000000 
BN_SackDef03 0.000000 0.000000 0.000000 0.000000 0.000000 0.000000 10.000000 
BN_SackDef04 0.000000 0.000000 0.000000 0.000000 0.000000 0.000000 10.000000 
BN_SackDef05 0.000000 0.000000 0.000000 0.000000 0.000000 0.000000 10.000000 
BN_SackDef06 0.000000 0.000000 0.000000 0.000000 0.000000 0.000000 10.000000 
#Beginning of Data. Separated by tabs
#Fr	Tx	Ty	Tz	Rx	Ry	Rz	SF
[BN_Tick_Root]
37 0.000000 -0.000079 0.000000 0.000000 0.000000 -0.000020 0.000079
38 0.000000 -0.000081 0.000000 0.000000 0.000000 -0.000020 0.000081
39 0.000000 -0.000083 0.000000 0.000000 0.000000 -0.000020 0.000083
40 0.000000 -0.000086 0.000000 0.000000 0.000000 -0.000020 0.000086
[BN_Torso]
37 79.806000 127.507317 303.737915 20.374447 0.130808 6.304443 338.945160
38 79.850258 127.083588 304.956757 19.982107 0.132905 6.300522 339.889587
39 79.894516 126.659866 306.175629 19.263260 0.131740 6.302700 340.836273
40 79.938766 126.236153 307.394470 18.876596 0.132669 6.303859 341.785217
[BN_L_Leg_Front01]
37 -68.477791 10.734189 -26.804373 35.606956 65.282578 -122.564728 74.316254
38 -68.477791 10.734189 -26.804373 35.485790 65.636955 -122.831924 74.316254
39 -68.477791 10.734189 -26.804373 34.586452 66.282181 -123.873924 74.316254
40 -68.477791 10.734189 -26.804373 34.130688 66.643509 -124.471214 74.316254
[BN_L_Leg_Rear01]
37 -72.133743 -73.994843 -18.268616 84.581779 44.345123 -125.717216 104.939293
38 -72.133743 -73.994843 -18.268616 84.364449 45.016163 -125.894119 104.939293
39 -72.133743 -73.994843 -18.268616 83.853027 45.844429 -126.345154 104.939293
40 -72.133743 -73.994843 -18.268616 83.586235 46.340992 -126.600929 104.939293
[BN_MetalTop]
37 0.000008 13.737477 26.403606 76.362694 -34.565422 -93.777275 29.763546
38 0.000008 13.737477 26.403606 76.470215 -33.939400 -93.963638 29.763546
39 0.000008 13.737477 26.403606 76.588753 -33.177670 -94.181396 29.763546
40 0.000008 13.737477 26.403606 76.757599 -32.098454 -94.486328 29.763546
[BN_Neck]
37 0.000014 95.233284 10.002091 -89.999672 -65.297531 89.999657 95.757088
38 0.000014 95.233284 10.002091 -89.999672 -65.297531 89.999657 95.757088
39 0.000014 95.233284 10.002091 -89.999672 -65.297531 89.999657 95.757088
40 0.000014 95.233284 10.002091 -89.999672 -65.297531 89.999657 95.757088
[BN_R_Leg_Front01]
37 68.477768 10.734107 -26.804314 -36.526154 63.615639 -66.054131 74.316193
38 68.477768 10.734107 -26.804314 -36.564106 63.994572 -65.875916 74.316193
39 68.477768 10.734107 -26.804314 -36.012814 64.692833 -65.105286 74.316193
40 68.477768 10.734107 -26.804314 -35.765240 65.076302 -64.657997 74.316193
[BN_R_Leg_Rear01]
37 72.133751 -73.994873 -18.268644 -69.494072 38.311085 -77.345612 104.939331
38 72.133751 -73.994873 -18.268644 -69.367378 39.058655 -77.264191 104.939331
39 72.133751 -73.994873 -18.268644 -69.141754 40.017365 -77.104141 104.939331
40 72.133751 -73.994873 -18.268644 -69.022423 40.583889 -77.012886 104.939331
[BN_Sack]
37 -0.000000 -78.024918 33.657791 93.550041 -0.250387 -97.699585 84.974907
38 -0.000000 -78.024918 33.657791 93.545166 0.044613 -97.683960 84.974907
39 -0.000000 -78.024918 33.657791 93.540352 0.339614 -97.668343 84.974907
40 -0.000000 -78.024918 33.657791 93.535606 0.634608 -97.652756 84.974907
[BN_L_Leg_Front02]
37 142.805023 -0.000015 -0.000104 0.151533 0.418635 -104.407471 142.805023
38 142.805023 -0.000015 -0.000104 0.152642 0.406577 -103.490875 142.805023
39 142.805023 -0.000015 -0.000104 0.153940 0.402768 -103.238541 142.805023
40 142.805023 -0.000015 -0.000104 0.155222 0.398953 -102.986183 142.805023
[BN_L_Leg_Front03]
37 124.143021 -0.000045 0.000007 0.356539 -0.412686 113.288483 124.143021
38 124.143021 -0.000045 0.000007 0.351754 -0.415204 112.332588 124.143021
39 124.143021 -0.000045 0.000007 0.354086 -0.416449 112.070183 124.143021
40 124.143021 -0.000045 0.000007 0.356424 -0.417684 111.807777 124.143021
[BN_L_Leg_Rear02]
37 139.939041 0.000075 -0.000022 0.127513 -0.196417 80.471748 139.939041
38 139.939041 0.000075 -0.000022 0.132858 -0.205945 79.922173 139.939041
39 139.939041 0.000075 -0.000022 0.133188 -0.205733 79.738533 139.939041
40 139.939041 0.000075 -0.000022 0.133517 -0.205518 79.554871 139.939041
[BN_L_Leg_Rear03]
37 142.839615 0.000179 -0.000060 0.000115 -0.002344 -95.620697 142.839615
38 142.839615 0.000179 -0.000060 0.000100 -0.002345 -94.891014 142.839615
39 142.839615 0.000179 -0.000060 0.000095 -0.002345 -94.642097 142.839615
40 142.839615 0.000179 -0.000060 0.000090 -0.002345 -94.393196 142.839615
[BN_Head]
37 57.062447 -0.000030 0.000000 12.119267 17.849070 65.506004 57.062447
38 57.062447 -0.000030 0.000000 12.069280 17.889761 64.923668 57.062447
39 57.062447 -0.000030 0.000000 12.033671 17.917171 64.073036 57.062447
40 57.062447 -0.000030 0.000000 12.020793 17.928186 63.637951 57.062447
[BN_Needle]
37 43.342972 326.398193 -0.000105 0.000003 0.000030 87.896805 329.263397
38 43.342972 326.398193 -0.000105 0.000003 0.000030 87.896805 329.263397
39 43.342976 326.398193 -0.000106 0.000003 0.000030 87.896805 329.263397
40 43.342976 326.398193 -0.000106 0.000003 0.000030 87.896805 329.263397
[BN_R_Leg_Front02]
37 142.804947 -0.000060 0.000060 -0.141787 0.457639 107.825272 142.804947
38 142.804947 -0.000060 0.000060 -0.143638 0.445564 106.879990 142.804947
39 142.804947 -0.000060 0.000060 -0.145091 0.441799 106.636391 142.804947
40 142.804947 -0.000060 0.000060 -0.146528 0.438027 106.392799 142.804947
[BN_R_Leg_Front03]
37 124.143005 -0.000060 -0.000156 -0.354399 -0.399376 -116.740417 124.143005
38 124.143005 -0.000060 -0.000156 -0.351905 -0.405908 -115.802864 124.143005
39 124.143005 -0.000060 -0.000156 -0.352774 -0.405154 -115.557320 124.143005
40 124.143005 -0.000060 -0.000156 -0.353641 -0.404396 -115.311790 124.143005
[BN_R_Leg_Rear02]
37 139.939011 -0.000149 0.000015 -0.136492 -0.205422 -78.595039 139.939011
38 139.939011 -0.000149 0.000015 -0.132796 -0.194772 -78.110161 139.939011
39 139.939011 -0.000149 0.000015 -0.133007 -0.194628 -77.986084 139.939011
40 139.939011 -0.000149 0.000015 -0.133217 -0.194484 -77.862000 139.939011
[BN_R_Leg_Rear03]
37 142.839417 0.000075 0.000119 0.002346 -0.000063 93.087509 142.839417
38 142.839417 0.000075 0.000119 0.002347 -0.000050 92.424805 142.839417
39 142.839417 0.000075 0.000119 0.002347 -0.000046 92.256729 142.839417
40 142.839417 0.000075 0.000119 0.002347 -0.000043 92.088638 142.839417
[BN_SackDef01]
37 249.782333 -3.760696 42.949490 -128.408218 -44.374973 -11.740845 253.475861
38 249.782333 -3.760697 42.949490 -128.408218 -44.374973 -11.740845 253.475861
39 249.782333 -3.760699 42.949490 -128.408218 -44.374973 -11.740845 253.475861
40 249.782333 -3.760700 42.949490 -128.408218 -44.374973 -11.740845 253.475861
[BN_SackDef02]
37 138.789825 -62.131645 45.674438 32.077126 -27.375721 -88.781525 158.773773
38 138.789825 -62.131645 45.674438 32.077126 -27.375721 -88.781525 158.773773
39 138.789825 -62.131645 45.674438 32.077126 -27.375721 -88.781525 158.773773
40 138.789825 -62.131645 45.674438 32.077126 -27.375721 -88.781525 158.773773
[BN_SackDef03]
37 249.782303 -3.760630 -42.949623 18.144459 44.375008 -11.740894 253.475861
38 249.782303 -3.760629 -42.949623 18.144459 44.375008 -11.740894 253.475861
39 249.782303 -3.760629 -42.949623 18.144459 44.375008 -11.740894 253.475861
40 249.782318 -3.760628 -42.949623 18.144459 44.375008 -11.740894 253.475876
[BN_SackDef04]
37 138.789810 -62.131542 -45.674404 146.059982 27.375723 -88.781555 158.773712
38 138.789810 -62.131542 -45.674404 146.059982 27.375723 -88.781555 158.773712
39 138.789810 -62.131542 -45.674404 146.059982 27.375723 -88.781555 158.773712
40 138.789810 -62.131538 -45.674404 146.059982 27.375723 -88.781555 158.773712
[BN_SackDef05]
37 118.790176 46.167183 -63.831203 0.155741 51.314110 90.605110 142.537491
38 118.790176 46.167183 -63.831203 0.155741 51.314110 90.605110 142.537491
39 118.790176 46.167183 -63.831203 0.155741 51.314110 90.605110 142.537491
40 118.790176 46.167183 -63.831203 0.155741 51.314110 90.605110 142.537491
[BN_SackDef06]
37 118.790222 46.167240 63.831181 152.058487 -51.314072 90.605019 142.537537
38 118.790222 46.167236 63.831181 152.058487 -51.314072 90.605019 142.537537
39 118.790222 46.167236 63.831181 152.058487 -51.314072 90.605019 142.537537
40 118.790222 46.167236 63.831181 152.058487 -51.314072 90.605019 142.537537
